<svg width="24" height="18" viewBox="0 0 24 18" fill="none" xmlns="http://www.w3.org/2000/svg">
<rect width="24" height="18" rx="0.5" fill="white"/>
<path d="M8.6 18C9.15228 18 9.6 17.5523 9.6 17V12.6471C9.6 12.0948 10.0477 11.6471 10.6 11.6471H13.4C13.9523 11.6471 14.4 12.0948 14.4 12.6471V17C14.4 17.5523 14.8477 18 15.4 18H19.4C19.9523 18 20.4 17.5523 20.4 17V10.4603C20.4 9.94619 20.8168 9.52941 21.3309 9.52941C22.2125 9.52941 22.6002 8.4178 21.9098 7.86954L12.6219 0.493847C12.2577 0.204662 11.7423 0.204662 11.3781 0.493848L2.09021 7.86954C1.3998 8.41781 1.78749 9.52941 2.66911 9.52941C3.18323 9.52941 3.6 9.94618 3.6 10.4603V17C3.6 17.5523 4.04772 18 4.6 18H8.6Z" fill="#CEC5C5"/>
<rect x="0.00185097" y="0.125532" width="0.203734" height="11.6062" rx="0.101867" transform="matrix(0.79657 0.604547 -0.778399 0.627769 11.6858 1.32866)" fill="white" stroke="white" stroke-width="0.203734"/>
<mask id="path-4-inside-1" fill="white">
<path d="M2.50848 8.62476L3.72459 8.62489C4.26393 8.62495 4.69221 9.05362 4.69221 9.59339L4.69211 16.7101C4.69211 16.8326 4.59264 16.9349 4.47023 16.9383C4.34843 16.9418 4.24992 16.8461 4.24992 16.7242L4.25002 9.87142C4.25002 9.38567 3.86461 8.99991 3.37925 8.99985L2.88318 8.9998C2.67433 8.99978 2.50848 8.83378 2.50848 8.62476Z"/>
</mask>
<path d="M2.50848 8.62476L3.72459 8.62489C4.26393 8.62495 4.69221 9.05362 4.69221 9.59339L4.69211 16.7101C4.69211 16.8326 4.59264 16.9349 4.47023 16.9383C4.34843 16.9418 4.24992 16.8461 4.24992 16.7242L4.25002 9.87142C4.25002 9.38567 3.86461 8.99991 3.37925 8.99985L2.88318 8.9998C2.67433 8.99978 2.50848 8.83378 2.50848 8.62476Z" fill="white"/>
<path d="M2.50848 8.62476L2.51203 7.62477L2.47649 9.62516L2.50848 8.62476ZM2.50848 8.62476L3.50809 8.59287L3.5081 7.5965L2.51203 7.62477L2.50848 8.62476ZM3.37925 8.99985L3.34726 10.0003L3.37925 8.99985ZM4.24992 16.7242L3.25032 16.7561L4.24992 16.7242ZM4.69211 16.7101L5.69171 16.6782L4.69211 16.7101ZM3.72459 8.62489L3.75658 7.6245L3.72459 8.62489ZM2.47649 9.62516L3.6926 9.62529L3.75658 7.6245L2.54047 7.62436L2.47649 9.62516ZM3.6926 9.62529L3.69251 16.742L5.69171 16.6782L5.69181 9.5615L3.6926 9.62529ZM5.24953 16.6923L5.24962 9.83952L3.25041 9.90331L3.25032 16.7561L5.24953 16.6923ZM3.41124 7.99946L2.91517 7.99941L2.85119 10.0002L3.34726 10.0003L3.41124 7.99946ZM2.51203 7.62477L2.50494 9.62475L2.51203 7.62477ZM2.91517 7.99941C3.24566 7.99944 3.50809 8.26212 3.50809 8.59287L1.50888 8.65665C1.50887 9.40544 2.103 10.0001 2.85119 10.0002L2.91517 7.99941ZM5.24962 9.83952C5.24963 8.81401 4.43594 7.99957 3.41124 7.99946L3.34726 10.0003C3.29328 10.0002 3.25041 9.95734 3.25041 9.90331L5.24962 9.83952ZM4.47378 15.9384C4.90266 15.9262 5.24953 16.2633 5.24953 16.6923L3.25032 16.7561C3.25031 17.4288 3.7942 17.9574 4.46669 17.9383L4.47378 15.9384ZM3.69251 16.742C3.69251 16.3109 4.04274 15.9506 4.47378 15.9384L4.46669 17.9383C5.14255 17.9192 5.69171 17.3543 5.69171 16.6782L3.69251 16.742ZM3.6926 9.62529L3.6926 9.62529L5.69181 9.5615C5.69183 8.48196 4.83527 7.62461 3.75658 7.6245L3.6926 9.62529Z" fill="white" mask="url(#path-4-inside-1)"/>
</svg>
