<svg width="24" height="18" viewBox="0 0 24 18" fill="none" xmlns="http://www.w3.org/2000/svg">
<rect width="24" height="18" fill="white"/>
<path d="M19.7778 1.8H15.1333C14.6667 0.756 13.4444 0 12 0C10.5556 0 9.33333 0.756 8.86667 1.8H4.22222C3 1.8 2 2.61 2 3.6V16.2C2 17.19 3 18 4.22222 18H19.7778C21 18 22 17.19 22 16.2V3.6C22 2.61 21 1.8 19.7778 1.8ZM12 1.8C12.6111 1.8 13.1111 2.205 13.1111 2.7C13.1111 3.195 12.6111 3.6 12 3.6C11.3889 3.6 10.8889 3.195 10.8889 2.7C10.8889 2.205 11.3889 1.8 12 1.8ZM14.2222 14.4H6.44444V12.6H14.2222V14.4ZM17.5556 10.8H6.44444V9H17.5556V10.8ZM17.5556 7.2H6.44444V5.4H17.5556V7.2Z" fill="#DD324A"/>
<rect x="0.106968" y="0.104233" width="0.214765" height="12.8427" rx="0.107383" transform="matrix(0.99957 -0.0293208 -0.00342744 0.999994 2.71455 3.27158)" fill="white" stroke="white" stroke-width="0.214765"/>
<mask id="path-3-inside-1" fill="white">
<path d="M8.82745 2.625C8.92778 2.625 9.00742 2.70471 9.00742 2.80513C9.00742 2.90981 8.92115 2.99672 8.81654 2.99744L6.09394 3.01612L3.70928 2.99987C3.40288 2.99778 3.14158 3.2384 3.11733 3.54497L3.08638 3.93635C3.07817 4.04006 2.98687 4.11973 2.88361 4.11329C2.78825 4.10734 2.71543 4.02962 2.71543 3.93381L2.71542 3.41101C2.71542 2.98114 3.07126 2.625 3.50077 2.625L8.82745 2.625Z"/>
</mask>
<path d="M8.82745 2.625C8.92778 2.625 9.00742 2.70471 9.00742 2.80513C9.00742 2.90981 8.92115 2.99672 8.81654 2.99744L6.09394 3.01612L3.70928 2.99987C3.40288 2.99778 3.14158 3.2384 3.11733 3.54497L3.08638 3.93635C3.07817 4.04006 2.98687 4.11973 2.88361 4.11329C2.78825 4.10734 2.71543 4.02962 2.71543 3.93381L2.71542 3.41101C2.71542 2.98114 3.07126 2.625 3.50077 2.625L8.82745 2.625Z" fill="white"/>
<path d="M6.09394 3.01612L6.05442 4.01661L6.06807 4.01652L6.09394 3.01612ZM3.70928 2.99987L3.74879 1.99947L3.70928 2.99987ZM3.08638 3.93635L2.08993 3.88993L3.08638 3.93635ZM2.12089 3.49855L2.08993 3.88993L4.08282 3.98277L4.11378 3.59139L2.12089 3.49855ZM3.715 3.90106L3.715 3.37826L1.71585 3.44376L1.71585 3.96656L3.715 3.90106ZM3.46805 3.62542L8.79472 3.62542L8.86017 1.62458L3.53349 1.62458L3.46805 3.62542ZM8.84241 1.99704L6.11982 2.01572L6.06807 4.01652L8.79066 3.99784L8.84241 1.99704ZM6.13346 2.01572L3.74879 1.99947L3.66976 4.00027L6.05443 4.01652L6.13346 2.01572ZM3.715 3.37826C3.715 3.51344 3.60311 3.62542 3.46805 3.62542L3.53349 1.62458C2.53941 1.62458 1.71585 2.44884 1.71585 3.44376L3.715 3.37826ZM4.11378 3.59139C4.09559 3.82135 3.89959 4.00184 3.66976 4.00027L3.74879 1.99947C2.90616 1.99373 2.18757 2.65546 2.12089 3.49855L4.11378 3.59139ZM2.97823 3.11479C3.39596 3.14084 3.715 3.48131 3.715 3.90106L1.71585 3.96656C1.71585 4.57793 2.18055 5.07385 2.78899 5.11179L2.97823 3.11479ZM2.78899 5.11179C3.44792 5.15287 4.03048 4.64451 4.08282 3.98277L2.08993 3.88993C2.12586 3.4356 2.52583 3.08658 2.97823 3.11479L2.78899 5.11179ZM8.00784 2.83787C8.00785 2.3802 8.38503 2.00018 8.84241 1.99704L8.79066 3.99784C9.45727 3.99327 10.007 3.43942 10.007 2.77238L8.00784 2.83787ZM10.007 2.77238C10.007 2.13248 9.49953 1.62458 8.86017 1.62458L8.79472 3.62542C8.35603 3.62542 8.00784 3.27693 8.00784 2.83787L10.007 2.77238Z" fill="white" mask="url(#path-3-inside-1)"/>
<path d="M12.8929 3.2H12.9719C12.889 3.27659 12.7907 3.34469 12.6786 3.39999V3.3V3.2H12.8929ZM12.9719 1.9H12.8929H12.6786V1.8V1.70001C12.7907 1.75531 12.889 1.82341 12.9719 1.9ZM11.028 1.9C11.111 1.82341 11.2093 1.75531 11.3214 1.70001V1.8V1.9H11.1071H11.028ZM11.3214 3.39999C11.2093 3.34469 11.111 3.27659 11.028 3.2H11.1071H11.3214V3.3V3.39999Z" fill="#DD324A" stroke="#DD324A"/>
<rect x="6.10715" y="5.4" width="11.7857" height="1.8" fill="#DD324A"/>
<rect x="6.10715" y="9" width="11.7857" height="1.8" fill="#DD324A"/>
<rect x="6.10715" y="12.6" width="8.36406" height="1.8" fill="#DD324A"/>
<rect x="6.46429" y="5.4" width="11.0714" height="1.8" rx="0.9" fill="white"/>
<rect x="6.46429" y="9" width="11.0714" height="1.8" rx="0.9" fill="white"/>
<rect x="6.46429" y="12.6" width="7.85714" height="1.8" rx="0.9" fill="white"/>
</svg>
