<svg width="200" height="60" viewBox="0 0 200 60" fill="none" xmlns="http://www.w3.org/2000/svg">
<rect width="200" height="60" fill="white"/>
<path d="M40.5284 26.1448L26.0065 8.02382C24.7796 6.49288 22.4376 6.53218 21.2628 8.10341L7.88126 26.0003C4.22499 30.4504 3.9059 36.2367 7.74664 41.0291C13.2061 47.8411 24.9693 50.0282 34.0236 45.9191C43.0745 41.8114 45.9879 32.9619 40.5284 26.1448Z" fill="#DD324A"/>
<path d="M35.8594 51.9597C36.4647 52.3883 36.2967 52.7494 36.8269 53.1072C37.1569 53.3293 37.484 53.5498 37.8171 53.7677C38.1278 53.5588 38.464 53.3367 38.7992 53.1089C39.3334 52.7486 39.8615 52.3875 40.3855 52.0239C47.2256 46.9074 54.8954 41.1773 55 34.0637C54.9652 33.4547 54.8497 32.8505 54.6557 32.2614C54.4466 31.6142 54.1531 30.9869 53.7803 30.39C52.8144 28.9563 50.4227 27.7635 47.9822 27.5225C43.3541 27.0668 38.8211 27.1646 36.6406 29.7047L35.4688 30.9881C33.4914 28.6898 32.7249 27.4608 28.8991 27.4608C28.501 27.4608 28.0846 27.4814 27.6469 27.5233C25.2084 27.7635 22.8136 28.9571 21.8265 30.4246C21.471 30.9971 21.1765 31.6272 20.9723 32.2622C20.7743 32.8759 20.6575 33.5027 20.625 34.1254C20.7347 41.1782 29.0985 46.9058 35.8594 51.9597Z" fill="white"/>
<path d="M33.3679 47.8543C33.8336 48.1886 34.2429 48.4709 34.6507 48.7501C34.9047 48.9233 35.1562 49.0953 35.4125 49.2653C35.6515 49.1023 35.9101 48.9291 36.1679 48.7513C36.5789 48.4703 36.9851 48.1886 37.3882 47.905C42.65 43.9137 48.55 39.4438 48.6304 33.8945C48.6036 33.4194 48.5148 32.9481 48.3656 32.4886C48.2047 31.9838 47.979 31.4944 47.6922 31.0288C46.9492 29.9103 45.1093 28.9799 43.232 28.7919C39.6718 28.4364 37.9851 30.038 36.3078 32.0195L35.4109 33.0744L34.5148 32.0195C32.9937 30.2267 31.4953 28.7437 28.5523 28.7437C28.2461 28.7437 27.9257 28.7598 27.589 28.7925C25.7132 28.9799 23.8711 29.911 23.1117 31.0557C22.8383 31.5023 22.6117 31.9939 22.4547 32.4892C22.3023 32.9679 22.2125 33.4569 22.1875 33.9426C22.2718 39.4444 28.1672 43.9118 33.3679 47.8543Z" fill="#DD324A"/>
<rect width="1.12454" height="22.8723" rx="0.562272" transform="matrix(0.88643 0.462862 -0.590625 0.806946 22.1834 7.89784)" fill="white"/>
<ellipse cx="24.8261" cy="53.0452" rx="19.8261" ry="1.95482" fill="#C4C4C4" fill-opacity="0.5"/>
<path d="M57.06 48V22.44H65.916C67.956 22.44 69.744 22.776 71.28 23.448C72.84 24.12 74.136 25.032 75.168 26.184C76.2 27.336 76.968 28.692 77.472 30.252C78 31.788 78.264 33.432 78.264 35.184C78.264 37.128 77.976 38.892 77.4 40.476C76.824 42.036 75.996 43.38 74.916 44.508C73.836 45.612 72.528 46.476 70.992 47.1C69.48 47.7 67.788 48 65.916 48H57.06ZM74.988 35.184C74.988 33.744 74.784 32.424 74.376 31.224C73.992 30 73.404 28.956 72.612 28.092C71.844 27.228 70.896 26.556 69.768 26.076C68.64 25.572 67.356 25.32 65.916 25.32H60.3V45.12H65.916C67.38 45.12 68.676 44.868 69.804 44.364C70.956 43.86 71.904 43.164 72.648 42.276C73.416 41.388 73.992 40.344 74.376 39.144C74.784 37.92 74.988 36.6 74.988 35.184ZM91.9735 48.36C90.5095 48.36 89.1775 48 87.9775 47.28C86.7775 46.56 85.8295 45.624 85.1335 44.472V48H82.3255V21.72H85.4935V32.952C86.2855 31.728 87.2575 30.744 88.4095 30C89.5615 29.256 90.9055 28.884 92.4415 28.884C93.7375 28.884 94.9015 29.16 95.9335 29.712C96.9655 30.264 97.8415 30.996 98.5615 31.908C99.3055 32.796 99.8695 33.84 100.254 35.04C100.662 36.216 100.866 37.428 100.866 38.676C100.866 39.996 100.638 41.244 100.182 42.42C99.7255 43.596 99.1015 44.628 98.3095 45.516C97.5175 46.38 96.5695 47.076 95.4655 47.604C94.3855 48.108 93.2215 48.36 91.9735 48.36ZM91.1815 45.624C92.1175 45.624 92.9815 45.432 93.7735 45.048C94.5655 44.664 95.2495 44.148 95.8255 43.5C96.4015 42.852 96.8455 42.12 97.1575 41.304C97.4695 40.464 97.6255 39.588 97.6255 38.676C97.6255 37.764 97.4695 36.888 97.1575 36.048C96.8695 35.184 96.4495 34.428 95.8975 33.78C95.3695 33.132 94.7215 32.616 93.9535 32.232C93.2095 31.824 92.3815 31.62 91.4695 31.62C90.7975 31.62 90.1615 31.74 89.5615 31.98C88.9615 32.22 88.3975 32.544 87.8695 32.952C87.3655 33.336 86.9095 33.792 86.5015 34.32C86.1175 34.848 85.7815 35.412 85.4935 36.012V41.448C85.6135 42.048 85.8655 42.6 86.2495 43.104C86.6575 43.608 87.1255 44.052 87.6535 44.436C88.2055 44.796 88.7815 45.084 89.3815 45.3C90.0055 45.516 90.6055 45.624 91.1815 45.624ZM104.827 21.72H107.995V43.14C107.995 43.836 108.175 44.388 108.535 44.796C108.919 45.18 109.447 45.372 110.119 45.372C110.383 45.372 110.695 45.336 111.055 45.264C111.415 45.168 111.751 45.06 112.063 44.94L112.567 47.496C112.039 47.712 111.415 47.892 110.695 48.036C109.975 48.18 109.339 48.252 108.787 48.252C107.563 48.252 106.591 47.904 105.871 47.208C105.175 46.512 104.827 45.54 104.827 44.292V21.72ZM123.264 48.36C121.848 48.36 120.552 48.096 119.376 47.568C118.224 47.04 117.228 46.332 116.388 45.444C115.572 44.556 114.936 43.524 114.48 42.348C114.024 41.172 113.796 39.936 113.796 38.64C113.796 37.32 114.024 36.072 114.48 34.896C114.96 33.72 115.608 32.688 116.424 31.8C117.264 30.912 118.26 30.204 119.412 29.676C120.588 29.148 121.872 28.884 123.264 28.884C124.656 28.884 125.94 29.148 127.116 29.676C128.292 30.204 129.288 30.912 130.104 31.8C130.944 32.688 131.592 33.72 132.048 34.896C132.528 36.072 132.768 37.32 132.768 38.64C132.768 39.936 132.54 41.172 132.084 42.348C131.628 43.524 130.98 44.556 130.14 45.444C129.3 46.332 128.292 47.04 127.116 47.568C125.964 48.096 124.68 48.36 123.264 48.36ZM117.036 38.676C117.036 39.66 117.192 40.572 117.504 41.412C117.84 42.252 118.284 42.984 118.836 43.608C119.412 44.232 120.072 44.724 120.816 45.084C121.584 45.444 122.4 45.624 123.264 45.624C124.128 45.624 124.932 45.444 125.676 45.084C126.444 44.724 127.116 44.232 127.692 43.608C128.268 42.96 128.712 42.216 129.024 41.376C129.36 40.512 129.528 39.588 129.528 38.604C129.528 37.644 129.36 36.744 129.024 35.904C128.712 35.04 128.268 34.296 127.692 33.672C127.116 33.024 126.444 32.52 125.676 32.16C124.932 31.8 124.128 31.62 123.264 31.62C122.4 31.62 121.584 31.812 120.816 32.196C120.072 32.556 119.412 33.06 118.836 33.708C118.284 34.332 117.84 35.076 117.504 35.94C117.192 36.78 117.036 37.692 117.036 38.676ZM144.815 48.36C143.399 48.36 142.103 48.096 140.927 47.568C139.775 47.04 138.779 46.332 137.939 45.444C137.123 44.556 136.487 43.524 136.031 42.348C135.575 41.172 135.347 39.936 135.347 38.64C135.347 37.32 135.575 36.072 136.031 34.896C136.511 33.72 137.159 32.688 137.975 31.8C138.815 30.912 139.811 30.204 140.963 29.676C142.139 29.148 143.423 28.884 144.815 28.884C146.207 28.884 147.491 29.148 148.667 29.676C149.843 30.204 150.839 30.912 151.655 31.8C152.495 32.688 153.143 33.72 153.599 34.896C154.079 36.072 154.319 37.32 154.319 38.64C154.319 39.936 154.091 41.172 153.635 42.348C153.179 43.524 152.531 44.556 151.691 45.444C150.851 46.332 149.843 47.04 148.667 47.568C147.515 48.096 146.231 48.36 144.815 48.36ZM138.587 38.676C138.587 39.66 138.743 40.572 139.055 41.412C139.391 42.252 139.835 42.984 140.387 43.608C140.963 44.232 141.623 44.724 142.367 45.084C143.135 45.444 143.951 45.624 144.815 45.624C145.679 45.624 146.483 45.444 147.227 45.084C147.995 44.724 148.667 44.232 149.243 43.608C149.819 42.96 150.263 42.216 150.575 41.376C150.911 40.512 151.079 39.588 151.079 38.604C151.079 37.644 150.911 36.744 150.575 35.904C150.263 35.04 149.819 34.296 149.243 33.672C148.667 33.024 147.995 32.52 147.227 32.16C146.483 31.8 145.679 31.62 144.815 31.62C143.951 31.62 143.135 31.812 142.367 32.196C141.623 32.556 140.963 33.06 140.387 33.708C139.835 34.332 139.391 35.076 139.055 35.94C138.743 36.78 138.587 37.692 138.587 38.676ZM165.898 48.36C164.602 48.36 163.402 48.096 162.298 47.568C161.194 47.04 160.246 46.332 159.454 45.444C158.662 44.556 158.038 43.524 157.582 42.348C157.15 41.172 156.934 39.936 156.934 38.64C156.934 37.32 157.138 36.072 157.546 34.896C157.978 33.696 158.566 32.652 159.31 31.764C160.078 30.876 160.978 30.18 162.01 29.676C163.066 29.148 164.218 28.884 165.466 28.884C166.978 28.884 168.322 29.28 169.498 30.072C170.698 30.864 171.646 31.824 172.342 32.952V21.72H175.51V44.112C175.51 44.856 175.846 45.24 176.518 45.264V48C176.182 48.048 175.906 48.084 175.69 48.108C175.498 48.132 175.306 48.144 175.114 48.144C174.49 48.144 173.938 47.94 173.458 47.532C173.002 47.1 172.774 46.608 172.774 46.056V44.472C172.03 45.696 171.034 46.656 169.786 47.352C168.562 48.024 167.266 48.36 165.898 48.36ZM166.654 45.624C167.23 45.624 167.818 45.516 168.418 45.3C169.042 45.084 169.618 44.784 170.146 44.4C170.698 44.016 171.166 43.572 171.55 43.068C171.958 42.54 172.222 41.988 172.342 41.412V36.012C172.126 35.412 171.802 34.848 171.37 34.32C170.938 33.768 170.446 33.3 169.894 32.916C169.366 32.508 168.79 32.196 168.166 31.98C167.566 31.74 166.966 31.62 166.366 31.62C165.43 31.62 164.578 31.824 163.81 32.232C163.066 32.616 162.418 33.144 161.866 33.816C161.338 34.464 160.93 35.22 160.642 36.084C160.354 36.924 160.21 37.788 160.21 38.676C160.21 39.612 160.378 40.512 160.714 41.376C161.05 42.216 161.506 42.948 162.082 43.572C162.658 44.196 163.33 44.7 164.098 45.084C164.89 45.444 165.742 45.624 166.654 45.624ZM187.386 48.36C185.874 48.36 184.386 48.132 182.922 47.676C181.458 47.196 180.198 46.512 179.142 45.624L180.51 43.5C181.614 44.34 182.718 44.976 183.822 45.408C184.926 45.816 186.09 46.02 187.314 46.02C188.682 46.02 189.762 45.756 190.554 45.228C191.37 44.676 191.778 43.908 191.778 42.924C191.778 42.468 191.67 42.084 191.454 41.772C191.238 41.436 190.914 41.148 190.482 40.908C190.05 40.668 189.498 40.452 188.826 40.26C188.154 40.068 187.374 39.864 186.486 39.648C185.358 39.36 184.386 39.084 183.57 38.82C182.754 38.556 182.082 38.244 181.554 37.884C181.026 37.524 180.642 37.092 180.402 36.588C180.162 36.084 180.042 35.46 180.042 34.716C180.042 33.78 180.222 32.952 180.582 32.232C180.966 31.488 181.482 30.876 182.13 30.396C182.778 29.892 183.534 29.52 184.398 29.28C185.286 29.016 186.234 28.884 187.242 28.884C188.658 28.884 189.978 29.112 191.202 29.568C192.426 30.024 193.458 30.624 194.298 31.368L192.858 33.276C192.066 32.58 191.178 32.064 190.194 31.728C189.21 31.368 188.202 31.188 187.17 31.188C186.018 31.188 185.034 31.44 184.218 31.944C183.426 32.424 183.03 33.204 183.03 34.284C183.03 34.716 183.102 35.076 183.246 35.364C183.414 35.652 183.678 35.904 184.038 36.12C184.398 36.336 184.854 36.528 185.406 36.696C185.982 36.864 186.666 37.044 187.458 37.236C188.706 37.524 189.786 37.824 190.698 38.136C191.634 38.424 192.402 38.772 193.002 39.18C193.626 39.588 194.082 40.068 194.37 40.62C194.682 41.172 194.838 41.844 194.838 42.636C194.838 44.388 194.166 45.78 192.822 46.812C191.478 47.844 189.666 48.36 187.386 48.36Z" fill="black"/>
</svg>
