<svg width="140" height="140" viewBox="0 0 140 140" fill="none" xmlns="http://www.w3.org/2000/svg">
<g clip-path="url(#clip0)">
<rect width="140" height="140" fill="white"/>
<path d="M162.5 68C162.5 113.514 121.363 150.5 70.5 150.5C19.6375 150.5 -21.5 113.514 -21.5 68C-21.5 22.4861 19.6375 -14.5 70.5 -14.5C121.363 -14.5 162.5 22.4861 162.5 68Z" fill="white" stroke="white"/>
<path d="M105.632 59.4443L67.6342 7.0574C66.4121 5.37262 63.8877 5.41375 62.7212 7.13744L27.5807 59.0626C18.8395 70.8171 18.0766 86.1013 27.2589 98.76C40.3112 116.753 68.4343 122.53 90.0809 111.677C111.72 100.826 118.685 77.4512 105.632 59.4443Z" fill="#DD324A"/>
<path d="M94.47 127.632C95.9171 128.764 95.5156 129.718 96.783 130.663C97.5721 131.25 98.354 131.832 99.1504 132.408C99.8934 131.856 100.697 131.269 101.498 130.668C102.775 129.716 104.038 128.762 105.291 127.802C121.644 114.287 139.981 99.1515 140.231 80.3613C140.147 78.7527 139.872 77.1567 139.408 75.6008C138.908 73.8913 138.206 72.2343 137.315 70.6577C135.006 66.8705 129.288 63.72 123.453 63.0834C112.388 61.8797 101.551 62.138 96.3378 68.8475L93.5361 72.2374C88.8086 66.1666 86.9761 62.9204 77.8295 62.9204C76.8777 62.9204 75.8822 62.9747 74.8357 63.0856C69.0059 63.72 63.2806 66.8727 60.9205 70.7489C60.0707 72.2612 59.3665 73.9255 58.8785 75.6029C58.405 77.2238 58.1258 78.8795 58.0481 80.5243C58.3103 99.1537 78.3063 114.283 94.47 127.632Z" fill="white"/>
<path d="M88.5136 116.788C89.6268 117.671 90.6055 118.417 91.5805 119.154C92.1875 119.612 92.789 120.066 93.4016 120.515C93.9731 120.085 94.5914 119.627 95.2077 119.158C96.1902 118.415 97.1614 117.671 98.1252 116.922C110.705 106.379 124.81 94.5724 125.003 79.9145C124.939 78.6596 124.726 77.4146 124.37 76.2009C123.985 74.8674 123.445 73.5748 122.759 72.3449C120.983 69.3906 116.585 66.9329 112.096 66.4363C103.585 65.4973 99.5522 69.7279 95.5421 74.9619L93.3979 77.7484L91.2555 74.9619C87.6189 70.2262 84.0365 66.3092 77.0005 66.3092C76.2684 66.3092 75.5026 66.3515 74.6976 66.438C70.213 66.9329 65.8087 69.3923 63.9933 72.4161C63.3395 73.5957 62.7979 74.8941 62.4224 76.2026C62.0582 77.467 61.8434 78.7585 61.7837 80.0416C61.9854 94.5741 76.0797 106.374 88.5136 116.788Z" fill="#DD324A"/>
<rect width="2.75134" height="58.4793" rx="1.37567" transform="matrix(0.866191 0.499713 -0.552277 0.833661 61.7737 11.2464)" fill="white"/>
<ellipse cx="66.4607" cy="128.789" rx="45.6441" ry="5.06573" fill="#C4C4C4" fill-opacity="0.5"/>
</g>
<defs>
<clipPath id="clip0">
<rect width="140" height="140" fill="white"/>
</clipPath>
</defs>
</svg>
