<svg width="90" height="82" viewBox="0 0 90 82" fill="none" xmlns="http://www.w3.org/2000/svg">
<path d="M89.5 41C89.5 63.3247 69.6215 81.5 45 81.5C20.3785 81.5 0.5 63.3247 0.5 41C0.5 18.6753 20.3785 0.5 45 0.5C69.6215 0.5 89.5 18.6753 89.5 41Z" fill="white" stroke="white"/>
<path d="M62.0915 36.7737L44.9097 12.7211C43.6893 11.0127 41.1366 11.0541 39.9722 12.8011L24.1203 36.5851C19.8678 42.3916 19.4967 49.9416 23.9638 56.1947C30.3136 65.083 43.9951 67.9366 54.5259 62.5752C65.0528 57.2154 68.4412 45.6687 62.0915 36.7737Z" fill="#DD324A"/>
<path d="M56.6611 70.4569C57.3651 71.0161 57.1697 71.4873 57.7863 71.9542C58.1702 72.2439 58.5506 72.5316 58.938 72.816C59.2995 72.5434 59.6905 72.2536 60.0803 71.9563C60.7016 71.4862 61.3158 71.015 61.9253 70.5406C69.8809 63.8647 78.8014 56.3881 78.9231 47.1062C78.8826 46.3116 78.7483 45.5232 78.5227 44.7546C78.2795 43.9102 77.9381 43.0917 77.5045 42.3128C76.3811 40.4421 73.5993 38.8858 70.7609 38.5713C65.378 37.9767 60.1058 38.1043 57.5697 41.4186L56.2067 43.0932C53.9069 40.0944 53.0154 38.4908 48.5657 38.4908C48.1027 38.4908 47.6184 38.5177 47.1093 38.5724C44.2732 38.8858 41.4879 40.4432 40.3397 42.3579C39.9263 43.1049 39.5837 43.9271 39.3463 44.7557C39.116 45.5564 38.9801 46.3742 38.9423 47.1867C39.0699 56.3892 48.7977 63.8626 56.6611 70.4569Z" fill="white"/>
<path d="M53.7634 65.1002C54.305 65.5364 54.7811 65.9048 55.2554 66.269C55.5507 66.495 55.8433 66.7194 56.1413 66.9413C56.4194 66.7286 56.7202 66.5026 57.02 66.2706C57.498 65.9039 57.9705 65.5364 58.4393 65.1663C64.5591 59.9585 71.4213 54.1261 71.5149 46.8855C71.4837 46.2656 71.3804 45.6506 71.2068 45.051C71.0197 44.3923 70.7572 43.7538 70.4236 43.1463C69.5594 41.6869 67.4196 40.4729 65.2361 40.2276C61.0953 39.7637 59.1335 41.8535 57.1827 44.439L56.1395 45.8155L55.0973 44.439C53.3281 42.0997 51.5854 40.1648 48.1625 40.1648C47.8063 40.1648 47.4337 40.1857 47.0421 40.2284C44.8604 40.4729 42.7178 41.6878 41.8346 43.1814C41.5166 43.7642 41.253 44.4055 41.0704 45.0519C40.8932 45.6765 40.7887 46.3145 40.7596 46.9483C40.8578 54.127 47.7145 59.956 53.7634 65.1002Z" fill="#DD324A"/>
<rect width="1.34367" height="28.7545" rx="0.671833" transform="matrix(0.862855 0.505452 -0.546417 0.837513 40.7548 12.9651)" fill="white"/>
<ellipse cx="43.035" cy="71.0282" rx="22.2052" ry="2.50235" fill="#C4C4C4" fill-opacity="0.5"/>
</svg>
