<svg width="229" height="213" viewBox="0 0 229 213" fill="none" xmlns="http://www.w3.org/2000/svg">
<path d="M228.5 106.5C228.5 165.009 177.495 212.5 114.5 212.5C51.5048 212.5 0.5 165.009 0.5 106.5C0.5 47.9913 51.5048 0.5 114.5 0.5C177.495 0.5 228.5 47.9913 228.5 106.5Z" fill="white" stroke="white"/>
<path d="M157.988 95.522L110.385 27.4919C109.167 25.7515 106.576 25.7932 105.415 27.5718L61.3729 95.0321C50.5526 110.115 49.6083 129.726 60.9745 145.969C77.1312 169.057 111.943 176.47 138.738 162.543C165.523 148.62 174.145 118.627 157.988 95.522Z" fill="#DD324A"/>
<path d="M144.171 183.016C145.962 184.469 145.465 185.693 147.034 186.905C148.011 187.658 148.979 188.405 149.964 189.144C150.884 188.436 151.879 187.683 152.871 186.911C154.452 185.69 156.015 184.466 157.566 183.234C177.808 165.892 200.506 146.471 200.815 122.361C200.712 120.297 200.371 118.249 199.797 116.253C199.178 114.059 198.309 111.933 197.206 109.91C194.347 105.051 187.269 101.008 180.047 100.191C166.351 98.6468 152.936 98.9782 146.483 107.587L143.015 111.937C137.163 104.148 134.895 99.9822 123.573 99.9822C122.395 99.9822 121.162 100.052 119.867 100.194C112.651 101.008 105.564 105.054 102.642 110.027C101.59 111.968 100.719 114.103 100.114 116.256C99.5284 118.335 99.1827 120.46 99.0865 122.57C99.4111 146.474 124.163 165.887 144.171 183.016Z" fill="white"/>
<path d="M136.798 169.102C138.176 170.235 139.387 171.192 140.594 172.138C141.346 172.725 142.09 173.308 142.848 173.884C143.556 173.332 144.321 172.744 145.084 172.142C146.3 171.189 147.503 170.235 148.696 169.273C164.267 155.746 181.727 140.596 181.965 121.788C181.886 120.178 181.623 118.58 181.182 117.023C180.706 115.312 180.038 113.653 179.189 112.075C176.99 108.284 171.545 105.131 165.989 104.494C155.454 103.289 150.462 108.717 145.498 115.433L142.844 119.008L140.192 115.433C135.69 109.356 131.256 104.33 122.547 104.33C121.64 104.33 120.692 104.385 119.696 104.496C114.145 105.131 108.693 108.286 106.446 112.166C105.636 113.68 104.966 115.346 104.501 117.025C104.05 118.647 103.785 120.305 103.711 121.951C103.96 140.598 121.407 155.739 136.798 169.102Z" fill="#DD324A"/>
<rect width="3.43726" height="74.2388" rx="1.71863" transform="matrix(0.858242 0.513245 -0.538508 0.842621 103.698 33.6776)" fill="white"/>
<ellipse cx="109.5" cy="184.5" rx="56.5" ry="6.5" fill="#C4C4C4" fill-opacity="0.5"/>
</svg>
