<svg width="20" height="20" viewBox="0 0 20 20" fill="none" xmlns="http://www.w3.org/2000/svg">
<circle cx="10" cy="10" r="10" fill="white"/>
<circle cx="10" cy="10" r="9.5" stroke="black" stroke-opacity="0.5"/>
<path d="M10.7143 6.42858H9.28575V9.28572H6.42861V10.7143H9.28575V13.5714H10.7143V10.7143H13.5715V9.28572H10.7143V6.42858ZM10 2.85715C6.05718 2.85715 2.85718 6.05715 2.85718 10C2.85718 13.9429 6.05718 17.1429 10 17.1429C13.9429 17.1429 17.1429 13.9429 17.1429 10C17.1429 6.05715 13.9429 2.85715 10 2.85715ZM10 15.7143C6.85004 15.7143 4.28575 13.15 4.28575 10C4.28575 6.85 6.85004 4.28572 10 4.28572C13.15 4.28572 15.7143 6.85 15.7143 10C15.7143 13.15 13.15 15.7143 10 15.7143Z" fill="black" fill-opacity="0.7"/>
</svg>
