<svg width="24" height="18" viewBox="0 0 24 18" fill="none" xmlns="http://www.w3.org/2000/svg">
<rect width="24" height="18" fill="white"/>
<path d="M21 9C21 13.368 17.2461 17 12.5 17C7.75395 17 4 13.368 4 9C4 4.63198 7.75395 1 12.5 1C17.2461 1 21 4.63198 21 9Z" fill="white" stroke="#EE99A4" stroke-width="2"/>
<path d="M6.27513 12.2676L6.26997 12.5922L6.4565 12.858C7.76748 14.7258 9.99775 15.94 12.5 15.94C15.0023 15.94 17.2325 14.7258 18.5435 12.858L18.73 12.5922L18.7249 12.2676C18.7123 11.4766 18.2815 10.8681 17.8045 10.4454C17.3289 10.024 16.7218 9.70553 16.1206 9.46754C15.4337 9.19563 14.6735 8.9975 13.9621 8.87775C15.2122 8.34571 16.1125 7.14958 16.1125 5.7C16.1125 3.72796 14.4462 2.225 12.5 2.225C10.5538 2.225 8.8875 3.72796 8.8875 5.7C8.8875 7.1492 9.78736 8.34508 11.0369 8.87733C10.3242 8.99704 9.56312 9.19532 8.8758 9.46767C8.27493 9.70576 7.66858 10.0244 7.19359 10.446C6.71705 10.8691 6.2877 11.4775 6.27513 12.2676ZM4.79167 9C4.79167 5.04854 8.19366 1.75 12.5 1.75C16.8064 1.75 20.2083 5.04854 20.2083 9C20.2083 12.9515 16.8064 16.25 12.5 16.25C8.19366 16.25 4.79167 12.9515 4.79167 9Z" fill="#DD324A" stroke="#DD324A" stroke-width="2"/>
</svg>
