<svg width="24" height="18" viewBox="0 0 24 18" fill="none" xmlns="http://www.w3.org/2000/svg">
<rect width="24" height="18" fill="white"/>
<path d="M14.3946 8.85284L8.48304 0L3.00517 8.79233C1.72963 10.6555 1.61831 13.0781 2.95821 15.0845C4.86282 17.9366 8.96658 18.8522 12.1253 17.1319C15.2828 15.4121 16.2992 11.707 14.3946 8.85284Z" fill="#CEC5C5"/>
<path d="M3.41774 9.07479L3.42384 9.06588L3.42954 9.05673L8.4976 0.922175L13.9787 9.13038C13.9787 9.13042 13.9787 9.13046 13.9788 9.13051C15.7062 11.7193 14.8082 15.1012 11.8861 16.6928C8.937 18.299 5.12406 17.4275 3.37401 14.8069C2.15302 12.9785 2.2519 10.7777 3.41774 9.07479Z" stroke="white" stroke-opacity="0.5"/>
<rect width="0.410399" height="9.05113" rx="0.205199" transform="matrix(0.847367 0.531008 -0.520685 0.853749 8.40999 3.21325)" fill="white"/>
<rect x="0.0335174" y="0.142076" width="0.205199" height="8.84593" rx="0.1026" transform="matrix(0.847367 0.531008 -0.520685 0.853749 8.48908 3.21624)" stroke="white" stroke-opacity="0.5" stroke-width="0.205199"/>
<path d="M21.0396 8.85284L15.1281 0L9.6502 8.79233C8.37466 10.6555 8.26334 13.0781 9.60324 15.0845C11.5079 17.9366 15.6116 18.8522 18.7703 17.1319C21.9279 15.4121 22.9442 11.707 21.0396 8.85284Z" fill="#CEC5C5"/>
<path d="M10.0628 9.07479L10.0689 9.06588L10.0746 9.05673L15.1426 0.922175L20.6237 9.13038C20.6237 9.13042 20.6238 9.13046 20.6238 9.13051C22.3512 11.7193 21.4533 15.1012 18.5312 16.6928C15.582 18.299 11.7691 17.4275 10.019 14.8069C8.79806 12.9785 8.89693 10.7777 10.0628 9.07479Z" stroke="white" stroke-opacity="0.5"/>
<rect width="0.410399" height="9.05113" rx="0.205199" transform="matrix(0.847367 0.531008 -0.520685 0.853749 15.055 3.21325)" fill="white"/>
<rect x="0.0335174" y="0.142076" width="0.205199" height="8.84593" rx="0.1026" transform="matrix(0.847367 0.531008 -0.520685 0.853749 15.1341 3.21624)" stroke="white" stroke-opacity="0.5" stroke-width="0.205199"/>
</svg>
